<svg width="45" height="45" viewBox="0 0 45 45" fill="none" xmlns="http://www.w3.org/2000/svg">
    <path d="M39.9703 33.0014C39.2546 31.7612 38.1985 30.9545 36.8313 30.6039C36.5047 30.5201 36.1756 30.4675 35.849 30.4467C35.8912 29.9769 35.9131 29.5037 35.9131 29.0312C35.9131 28.4314 35.8788 27.8309 35.8107 27.2362C38.2406 26.9037 40.115 24.8839 40.115 22.4496C40.115 19.784 37.8667 17.6152 35.1031 17.6152C34.8321 17.6152 34.5646 17.637 34.3018 17.6775C34.87 16.3092 35.1828 14.8174 35.1828 13.2568C35.1828 12.2422 35.0514 11.2409 34.7913 10.2691C36.7851 9.42697 38.1119 7.51887 38.1119 5.36063C38.112 2.40478 35.617 0 32.5504 0C30.6808 0 28.9506 0.910371 27.9288 2.37744C26.3007 1.65779 24.5128 1.28048 22.7087 1.28048C20.9047 1.28048 19.1167 1.65779 17.4886 2.37744C16.4666 0.910371 14.7363 0 12.8668 0C9.80005 0 7.30501 2.40486 7.30501 5.3608C7.30501 7.51913 8.63198 9.42724 10.6258 10.2694C10.3657 11.2415 10.2342 12.2428 10.2342 13.257C10.2342 14.8176 10.5471 16.3092 11.1152 17.6777C10.8525 17.6372 10.585 17.6154 10.3139 17.6154C7.55031 17.6154 5.30198 19.7841 5.30198 22.4498C5.30198 24.8839 7.17669 26.9036 9.60634 27.2363C9.53822 27.8314 9.50377 28.4321 9.50377 29.0313C9.50377 29.5168 9.52706 30.003 9.57162 30.4856C9.53769 30.4849 9.50386 30.4838 9.46975 30.4838C9.03962 30.4838 8.60192 30.5401 8.16862 30.6512C6.80148 31.0017 5.74548 31.8083 5.0297 33.0486C3.79088 35.1954 3.85565 38.3682 4.46931 40.5604C5.20135 43.1744 7.67371 45 10.482 45C10.5997 45 10.7175 44.9961 10.8351 44.9896C10.8402 44.9895 10.8452 44.9895 10.8503 44.9893C10.8581 44.9889 10.8658 44.9882 10.8735 44.9878C10.8827 44.9873 10.8917 44.9866 10.9008 44.986C13.2029 44.8608 15.2296 43.5019 16.1881 41.5409C18.1693 42.7693 20.4016 43.4134 22.7084 43.4134C24.9106 43.4134 27.0558 42.8204 28.9737 41.6924C29.0047 41.7502 29.0351 41.8083 29.068 41.8655C29.8972 43.3022 31.262 44.3264 32.9108 44.7492C33.4369 44.8842 33.9776 44.9527 34.5177 44.9527C37.326 44.9527 39.7984 43.1271 40.5301 40.5131C41.1443 38.321 41.209 35.1482 39.9703 33.0014ZM9.06335 5.3608C9.06335 3.37438 10.7696 1.75825 12.8668 1.75825C14.3671 1.75825 15.7316 2.59752 16.343 3.89646C16.4451 4.11346 16.6315 4.27922 16.8588 4.35551C17.0862 4.43171 17.3347 4.41176 17.5472 4.30031C19.1186 3.47493 20.9034 3.03873 22.7085 3.03873C24.5136 3.03873 26.2984 3.47493 27.8697 4.30031C28.0821 4.41185 28.3308 4.4318 28.5581 4.35551C28.7855 4.27922 28.9718 4.11337 29.0739 3.89646C29.6854 2.59752 31.0498 1.75825 32.5502 1.75825C34.6474 1.75825 36.3537 3.3743 36.3537 5.3608C36.3537 6.76626 34.9136 8.26154 33.6181 8.85199C33.2226 9.03226 33.0918 9.16566 32.959 9.28696C32.8262 9.40827 32.86 9.9842 32.8655 10C32.8711 10.0158 32.86 9.9842 32.8655 10C32.86 9.9842 32.8839 10.0463 32.8655 10C32.8711 10.0158 32.8776 10.031 32.8839 10.0463C33.2421 11.0785 33.4244 12.1583 33.4244 13.257C33.4244 18.609 29.0867 23.0128 23.5874 23.4407V16.9039C24.8601 16.4681 25.7591 15.146 25.7591 13.9788C25.7591 13.3388 25.4618 11.8501 22.7084 11.8501C19.9549 11.8501 19.6577 13.3388 19.6577 13.9788C19.6577 15.146 20.5565 16.4681 21.8293 16.9039V23.4407C16.3301 23.0128 11.9923 18.6091 11.9923 13.257C11.9923 12.1422 12.1794 11.046 12.5486 9.99888C12.6313 9.76421 12.6107 9.50564 12.4919 9.28696C12.3731 9.06829 12.1673 8.91035 11.9254 8.85199C10.2403 8.44576 9.06335 7.01007 9.06335 5.3608ZM22.7086 30.2412C22.2231 30.2412 21.8295 30.6348 21.8295 31.1203V33.7849C18.8514 33.3569 16.5549 30.7896 16.5549 27.6949C16.5549 26.4422 16.939 25.2241 17.6446 24.201C19.193 24.8641 20.9067 25.2334 22.7086 25.2334C24.5106 25.2334 26.2243 24.8641 27.7727 24.201C28.4784 25.2242 28.8626 26.4422 28.8626 27.6949C28.8626 30.7895 26.566 33.3569 23.5879 33.7849V31.1203C23.5877 30.6348 23.1941 30.2412 22.7086 30.2412ZM21.4162 13.9788C21.4162 13.8931 21.4162 13.8576 21.5615 13.7861C21.6962 13.7197 22.0245 13.6085 22.7086 13.6085C23.3928 13.6085 23.721 13.7198 23.8558 13.7861C24.0011 13.8576 24.0011 13.8931 24.0011 13.9788C24.0011 14.4744 23.3969 15.2943 22.7085 15.2943C22.0202 15.2942 21.4162 14.4744 21.4162 13.9788ZM14.409 41.034C13.8182 42.0577 12.8392 42.7891 11.6523 43.0935C11.365 43.1671 11.0721 43.2135 10.7782 43.2323C10.7774 43.2323 10.7766 43.2323 10.7759 43.2324C10.6781 43.2386 10.5802 43.2417 10.4823 43.2417C8.45928 43.2417 6.68309 41.9441 6.16278 40.0862C5.66497 38.3081 5.57471 35.6224 6.55284 33.9273C7.02991 33.1007 7.70131 32.586 8.60561 32.3541C8.89627 32.2796 9.1871 32.2418 9.46993 32.2418C9.76726 32.2418 10.0558 32.283 10.3347 32.3591C10.3479 32.3632 10.361 32.3672 10.3744 32.3706C12.6391 33.0179 14.2648 35.9676 14.8082 37.9089C15.104 38.9655 14.9622 40.0754 14.409 41.034ZM28.4988 37.3876C28.257 38.2512 28.2194 39.139 28.3776 39.9968C26.6554 41.0825 24.7081 41.6551 22.7087 41.6551C20.5585 41.6551 18.4804 40.9991 16.6687 39.7542C16.7698 38.9874 16.7162 38.2017 16.5015 37.435C15.8616 35.1492 14.0598 31.9519 11.383 30.8638C11.3032 30.259 11.2624 29.6448 11.2624 29.0312C11.2624 28.1992 11.3369 27.3646 11.484 26.5506C11.5323 26.2835 11.4546 26.0093 11.2734 25.8072C11.0921 25.6052 10.8277 25.498 10.5572 25.5173C10.4766 25.523 10.395 25.5258 10.3144 25.5258C8.52027 25.5258 7.06067 24.1458 7.06067 22.4496C7.06067 20.7533 8.52027 19.3734 10.3144 19.3734C11.1726 19.3734 11.9796 19.6863 12.5915 20.254C13.5298 21.5011 14.7116 22.5685 16.0696 23.3916C15.2434 24.6667 14.7968 26.1612 14.7968 27.6949C14.7968 32.0576 18.3462 35.6069 22.7088 35.6069C27.0714 35.6069 30.6208 32.0575 30.6208 27.6949C30.6208 26.1612 30.1742 24.6668 29.348 23.3916C30.7061 22.5686 31.8879 21.5012 32.8262 20.254C33.4381 19.6861 34.2451 19.3734 35.1033 19.3734C36.8973 19.3734 38.3569 20.7533 38.3569 22.4496C38.3569 24.1458 36.8973 25.5258 35.1033 25.5258C35.0228 25.5258 34.941 25.5229 34.8602 25.5173C34.5897 25.498 34.3252 25.6052 34.144 25.8072C33.9629 26.0093 33.8851 26.2836 33.9333 26.5507C34.0804 27.3637 34.155 28.1982 34.155 29.0311C34.155 29.5755 34.123 30.1207 34.0602 30.6585C31.1392 31.5553 29.1735 34.9781 28.4988 37.3876ZM38.8374 40.0391C38.3173 41.897 36.5411 43.1946 34.5181 43.1946C34.1252 43.1946 33.7315 43.1448 33.3479 43.0464C32.1609 42.742 31.1818 42.0106 30.5912 40.9869C30.038 40.0282 29.8962 38.9183 30.1919 37.862C30.7642 35.8179 32.5362 32.656 34.9906 32.2409C35.0001 32.2393 35.0097 32.2377 35.0192 32.2358C35.1865 32.209 35.3569 32.195 35.5303 32.195C35.8132 32.195 36.104 32.2327 36.3946 32.3073C37.2988 32.5392 37.9703 33.0537 38.4475 33.8804C39.4255 35.5752 39.3353 38.261 38.8374 40.0391Z" fill="#000000"/>
    <path d="M28.2361 9.95845C27.4248 9.95845 26.7629 10.5919 26.7629 11.3684C26.7629 12.145 27.4247 12.7784 28.2361 12.7784C29.0475 12.7784 29.7092 12.145 29.7092 11.3684C29.7092 10.5919 29.0475 9.95845 28.2361 9.95845Z" fill="#000000"/>
    <path d="M17.1813 9.95845C16.3699 9.95845 15.7081 10.5919 15.7081 11.3684C15.7081 12.145 16.3698 12.7784 17.1813 12.7784C17.9926 12.7784 18.6544 12.145 18.6544 11.3684C18.6544 10.5919 17.9926 9.95845 17.1813 9.95845Z" fill="#000000"/>
    <path d="M22.7084 27.6948C22.2229 27.6948 21.8293 28.0883 21.8293 28.5739V28.5946C21.8293 29.0801 22.2229 29.4737 22.7084 29.4737C23.1939 29.4737 23.5875 29.0801 23.5875 28.5946V28.5739C23.5875 28.0883 23.1939 27.6948 22.7084 27.6948Z" fill="#000000"/>
</svg>
